<?xml version="1.0"?>
<svg version="1.1" xmlns="http://www.w3.org/2000/svg" width="800px" height="800px" style=""><path fill="#2797b0" d="M154.65087890625,436.2431640625q0-1.52099609375,1.04296875-1.933837890625t2.259765625-0.412841796875q2.12939453125,0,3.60693359375,1.912109375t2.802978515625,4.193603515625t2.629150390625,4.193603515625t3.08544921875,1.912109375q1.34716796875,0,2.455322265625-0.673583984375t1.912109375-1.69482421875t1.238525390625-2.30322265625t0.4345703125-2.542236328125q0-3.302734375-1.325439453125-6.82275390625t-3.3896484375-7.25732421875t-4.367431640625-7.6484375t-4.345703125-7.95263671875t-3.3896484375-8.235107421875t-1.34716796875-8.452392578125q0-6.38818359375,3.82421875-9.908203125t10.08203125-3.52001953125q2.12939453125,0,4.30224609375,0.6083984375t3.998046875,1.8251953125t2.976806640625,2.99853515625t1.151611328125,4.171875q0,0.7822265625-1.151611328125,1.021240234375t-1.673095703125,0.239013671875q-0.7822265625,0-1.69482421875-0.195556640625t-1.17333984375-1.064697265625t-0.73876953125-1.9990234375t-1.195068359375-2.107666015625t-1.69482421875-1.69482421875t-2.151123046875-0.717041015625q-1.95556640625,0-3.324462890625,0.803955078125t-2.21630859375,2.151123046875t-1.26025390625,3.020263671875t-0.412841796875,3.454833984375q0,4.171875,1.43408203125,8.408935546875t3.5634765625,8.4306640625t4.628173828125,8.278564453125t4.628173828125,7.95263671875t3.5634765625,7.5615234375t1.43408203125,6.99658203125q0,2.955078125-1.390625,4.99755859375t-3.52001953125,3.324462890625t-4.715087890625,1.86865234375t-5.062744140625,0.586669921875q-2.65087890625,0-5.43212890625-1.064697265625t-4.99755859375-2.933349609375t-3.650390625-4.367431640625t-1.43408203125-5.410400390625z M193.74786621094,433.02734375l0-4.0849609375q0-2.21630859375,0.108642578125-6.279541015625t0.282470703125-8.90869140625t0.47802734375-10.103759765625t0.6953125-9.929931640625t0.934326171875-8.365478515625t1.238525390625-5.4755859375q0.4345703125-0.99951171875,1.43408203125-1.26025390625t1.95556640625-0.2607421875q1.52099609375,0,2.672607421875,0.673583984375t1.151611328125,2.455322265625l-0.7822265625,0.869140625q-1.52099609375,10.03857421875-1.95556640625,20.1640625t-0.6083984375,20.2509765625q1.08642578125-1.69482421875,2.455322265625-3.324462890625t3.0419921875-2.889892578125t3.60693359375-2.020751953125t4.237060546875-0.760498046875q2.955078125,0,4.888916015625,1.78173828125t3.194091796875,4.628173828125t1.86865234375,6.366455078125t0.934326171875,7.0400390625t0.456298828125,6.670654296875t0.39111328125,5.236572265625q-0.82568359375,1.1298828125-2.43359375,1.1298828125l-0.13037109375,0q-0.6953125,0-1.52099609375-0.173828125t-1.08642578125-0.869140625l0.0869140625,0.0869140625q-0.6083984375-1.34716796875-0.82568359375-3.889404296875t-0.34765625-5.60595703125t-0.456298828125-6.279541015625t-0.977783203125-5.8232421875t-1.912109375-4.30224609375t-3.3896484375-1.78173828125l-0.2607421875,0q-2.56396484375,0-4.30224609375,1.564453125q-1.8251953125,1.6513671875-2.955078125,4.345703125t-1.73828125,5.9970703125t-0.934326171875,6.366455078125t-0.499755859375,5.5625t-0.4345703125,3.672119140625q-0.2607421875,0.99951171875-1.542724609375,1.325439453125t-2.194580078125,0.325927734375q-2.12939453125,0-3.4765625-1.216796875q-0.99951171875-2.39013671875-1.17333984375-5.95361328125t-0.173828125-6.953125z M235.32190429688,416.12255859375q0-1.78173828125,0.630126953125-2.99853515625t2.672607421875-1.216796875q0.7822265625,0,1.95556640625,0.239013671875t1.34716796875,1.195068359375q0.4345703125,2.56396484375,0.47802734375,5.5625t0.30419921875,5.6494140625q0.99951171875-1.95556640625,2.56396484375-4.21533203125t3.5634765625-4.171875t4.345703125-3.17236328125t4.7802734375-1.26025390625q0.173828125,0,0.65185546875,0.13037109375t0.890869140625,0.369384765625t0.499755859375,0.543212890625t-0.47802734375,0.56494140625q-0.173828125,0.521484375-0.73876953125,0.630126953125t-0.99951171875,0.108642578125q-0.2607421875,0-0.82568359375-0.21728515625q-3.2158203125,1.69482421875-5.4755859375,4.6064453125t-3.69384765625,6.453369140625t-2.0859375,7.474609375t-0.65185546875,7.670166015625q0,1.86865234375-0.847412109375,2.259765625t-2.716064453125,0.39111328125q-0.99951171875,0-2.107666015625-0.21728515625t-1.542724609375-1.390625q-0.7822265625-2.47705078125-1.281982421875-5.69287109375t-0.760498046875-6.627197265625t-0.369384765625-6.714111328125t-0.108642578125-5.95361328125z M266.20551269531,430.072265625q0-3.0419921875,0.673583984375-7.17041015625t2.281494140625-7.822265625t4.237060546875-6.279541015625t6.627197265625-2.585693359375q3.7373046875,0,5.60595703125,2.151123046875t1.86865234375,5.801513671875q0,2.39013671875-0.890869140625,5.236572265625t-2.542236328125,5.388671875t-3.9111328125,4.237060546875t-5.041015625,1.69482421875l-1.1298828125-0.0869140625q0,1.17333984375,0.34765625,3.150634765625t1.021240234375,3.932861328125t1.73828125,3.43310546875t2.585693359375,1.4775390625q2.21630859375,0,4.2587890625-1.78173828125t3.86767578125-3.95458984375t3.3896484375-3.95458984375t2.8681640625-1.78173828125q0.6953125,0,1.43408203125,0.21728515625t0.82568359375,1.216796875q0,0.6083984375-0.325927734375,0.99951171875t-0.586669921875,0.869140625q-1.34716796875,2.30322265625-2.933349609375,4.38916015625t-3.585205078125,3.78076171875t-4.367431640625,2.672607421875t-5.236572265625,0.977783203125q-3.7373046875,0-6.21435546875-1.325439453125t-3.998046875-3.5634765625t-2.194580078125-5.17138671875t-0.673583984375-6.149169921875z M273.98432128906,426.76953125l1.216796875,1.08642578125q0.869140625,0.7822265625,1.73828125,0.34765625t1.564453125-1.586181640625t1.281982421875-2.846435546875t1.04296875-3.4765625t0.673583984375-3.4765625t0.21728515625-2.82470703125l0-1.4775390625t-0.13037109375-1.564453125t-0.456298828125-1.238525390625t-1.021240234375-0.630126953125q-0.21728515625-0.04345703125-0.39111328125-0.04345703125q-1.4775390625,0-2.5205078125,1.86865234375q-1.1298828125,2.0859375-1.8251953125,5.062744140625t-0.99951171875,6.105712890625t-0.39111328125,4.693359375z M302.52125,430.072265625q0-3.0419921875,0.673583984375-7.17041015625t2.281494140625-7.822265625t4.237060546875-6.279541015625t6.627197265625-2.585693359375q3.7373046875,0,5.60595703125,2.151123046875t1.86865234375,5.801513671875q0,2.39013671875-0.890869140625,5.236572265625t-2.542236328125,5.388671875t-3.9111328125,4.237060546875t-5.041015625,1.69482421875l-1.1298828125-0.0869140625q0,1.17333984375,0.34765625,3.150634765625t1.021240234375,3.932861328125t1.73828125,3.43310546875t2.585693359375,1.4775390625q2.21630859375,0,4.2587890625-1.78173828125t3.86767578125-3.95458984375t3.3896484375-3.95458984375t2.8681640625-1.78173828125q0.6953125,0,1.43408203125,0.21728515625t0.82568359375,1.216796875q0,0.6083984375-0.325927734375,0.99951171875t-0.586669921875,0.869140625q-1.34716796875,2.30322265625-2.933349609375,4.38916015625t-3.585205078125,3.78076171875t-4.367431640625,2.672607421875t-5.236572265625,0.977783203125q-3.7373046875,0-6.21435546875-1.325439453125t-3.998046875-3.5634765625t-2.194580078125-5.17138671875t-0.673583984375-6.149169921875z M310.30005859375,426.76953125l1.216796875,1.08642578125q0.869140625,0.7822265625,1.73828125,0.34765625t1.564453125-1.586181640625t1.281982421875-2.846435546875t1.04296875-3.4765625t0.673583984375-3.4765625t0.21728515625-2.82470703125l0-1.4775390625t-0.13037109375-1.564453125t-0.456298828125-1.238525390625t-1.021240234375-0.630126953125q-0.21728515625-0.04345703125-0.39111328125-0.04345703125q-1.4775390625,0-2.5205078125,1.86865234375q-1.1298828125,2.0859375-1.8251953125,5.062744140625t-0.99951171875,6.105712890625t-0.39111328125,4.693359375z M338.94562988281,417.40454101562q-0.108642578125-1.455810546875,0.173828125-2.672607421875t1.1298828125-1.977294921875t2.716064453125-0.760498046875q0.4345703125,0,1.064697265625,0.108642578125t1.238525390625,0.282470703125t1.021240234375,0.521484375t0.412841796875,0.9560546875l0,4.91064453125q1.69482421875-1.95556640625,3.69384765625-2.802978515625t4.56298828125-0.847412109375q1.95556640625,0,3.86767578125,0.890869140625t3.60693359375,2.368408203125t2.933349609375,3.25927734375t1.803466796875,3.5634765625q0.34765625-1.60791015625,0.7822265625-3.932861328125t1.281982421875-4.454345703125t2.238037109375-3.650390625t3.69384765625-1.52099609375q2.47705078125,0,4.171875,1.78173828125t2.759521484375,4.628173828125t1.60791015625,6.366455078125t0.803955078125,6.953125t0.2607421875,6.409912109375l0,4.671630859375q0,0.521484375-0.39111328125,0.847412109375t-0.977783203125,0.499755859375t-1.216796875,0.21728515625t-0.977783203125,0.04345703125q-1.34716796875,0-2.455322265625-0.412841796875t-1.108154296875-2.107666015625l0-3.9111328125t-0.0869140625-5.062744140625t-0.30419921875-5.43212890625t-0.56494140625-4.932373046875t-0.890869140625-3.5634765625t-1.325439453125-1.390625q-1.08642578125,0-1.564453125,1.216796875t-0.803955078125,3.08544921875t-0.499755859375,3.95458984375t-0.47802734375,3.95458984375t-0.977783203125,3.063720703125t-1.846923828125,1.195068359375q-1.26025390625,0-2.21630859375-1.195068359375t-1.890380859375-2.976806640625t-1.86865234375-3.82421875t-2.064208984375-3.82421875q-1.1298828125-1.8251953125-2.43359375-2.955078125q-1.17333984375-1.08642578125-2.65087890625-1.04296875l-0.21728515625,0q-1.95556640625,0.0869140625-3.063720703125,1.412353515625t-1.69482421875,3.237548828125t-0.717041015625,4.106689453125t-0.13037109375,3.845947265625q0,1.564453125,0.2607421875,3.650390625q0.173828125,1.390625,0.173828125,2.65087890625q0,0.65185546875-0.04345703125,1.26025390625q-0.13037109375,1.8251953125-0.977783203125,3.063720703125t-3.150634765625,1.238525390625q-0.869140625,0-2.1728515625-0.173828125t-1.73828125-1.17333984375q-0.99951171875-1.78173828125-1.52099609375-4.497802734375t-0.7822265625-5.60595703125t-0.30419921875-5.736328125t-0.04345703125-4.888916015625q0-1.43408203125-0.108642578125-2.889892578125z M393.75233398438,428.29052734375q0-2.955078125,0.803955078125-5.69287109375t2.411865234375-4.888916015625t4.019775390625-3.43310546875t5.584228515625-1.281982421875q1.95556640625,0,4.323974609375,0.586669921875t4.454345703125,1.73828125t3.4765625,2.933349609375t1.390625,4.0849609375q0,1.08642578125-0.369384765625,1.6513671875t-1.499267578125,0.56494140625l-0.47802734375-0.0869140625q1.26025390625,3.3896484375,2.1728515625,6.953125t1.78173828125,7.126953125q0.34765625,0.6953125,0.521484375,1.238525390625t0.173828125,1.064697265625q0,0.6953125-0.39111328125,1.151611328125t-1.021240234375,0.673583984375t-1.3037109375,0.30419921875t-1.195068359375,0.0869140625q-1.86865234375,0-2.802978515625-0.65185546875t-1.34716796875-1.78173828125t-0.499755859375-2.542236328125t-0.34765625-2.846435546875q-0.521484375,1.69482421875-1.368896484375,3.302734375t-1.9990234375,2.889892578125t-2.716064453125,2.04248046875t-3.52001953125,0.760498046875q-2.8681640625,0-4.82373046875-1.6513671875t-3.150634765625-4.063232421875t-1.73828125-5.149658203125t-0.543212890625-5.08447265625z M399.92323242188,427.68212890625q0,1.60791015625,0.21728515625,3.3896484375t0.717041015625,3.52001953125t1.281982421875,3.281005859375t1.95556640625,2.716064453125q2.12939453125-2.30322265625,3.150634765625-5.60595703125t1.8251953125-6.366455078125t1.8251953125-5.25830078125t3.150634765625-2.194580078125q1.34716796875,0,2.259765625,0.47802734375q-0.4345703125-1.08642578125-1.43408203125-2.107666015625t-2.238037109375-1.86865234375t-2.56396484375-1.390625t-2.498779296875-0.543212890625q-0.34765625,0-0.803955078125,0.108642578125t-0.717041015625,0.021728515625q-1.78173828125,0.521484375-2.933349609375,1.803466796875t-1.86865234375,3.020263671875t-1.021240234375,3.5634765625t-0.30419921875,3.43310546875z M433.19697753906,423.119140625q0-0.869140625,2.368408203125-1.3037109375t5.5625-0.630126953125t6.627197265625-0.152099609375t5.5625,0.04345703125q1.08642578125,0,2.542236328125,0.412841796875t1.455810546875,1.368896484375q0,0.7822265625-0.6953125,1.151611328125t-1.629638671875,0.543212890625t-1.8251953125,0.173828125l-1.151611328125,0q-3.0419921875,0-5.714599609375-0.13037109375t-5.540771484375-0.13037109375q-0.869140625,0-1.760009765625,0.0869140625t-1.673095703125,0.0869140625l-1.238525390625,0t-1.34716796875-0.13037109375t-1.08642578125-0.4345703125t-0.456298828125-0.9560546875z M467.99171875,443.8916015625q0.173828125-9.08251953125,0.760498046875-18.12158203125t1.021240234375-18.12158203125q0.0869140625-3.4765625,0.0869140625-6.322998046875t0.282470703125-4.932373046875t1.04296875-3.194091796875t2.542236328125-1.108154296875q1.52099609375,0,2.30322265625,0.4345703125t1.195068359375,1.108154296875t0.499755859375,1.52099609375t0.0869140625,1.716552734375q0,1.26025390625,0.0869140625,2.498779296875t0.0869140625,2.498779296875q0,9.16943359375-0.499755859375,18.29541015625t-0.499755859375,18.38232421875q0,1.34716796875,0.04345703125,2.716064453125t0.04345703125,2.802978515625q0,0.521484375-0.47802734375,0.869140625t-1.195068359375,0.586669921875t-1.52099609375,0.325927734375t-1.325439453125,0.0869140625q-0.6083984375,0-1.368896484375-0.0869140625t-1.4775390625-0.369384765625t-1.216796875-0.673583984375t-0.499755859375-0.91259765625z M470.4253125,384.9638671875q0-0.4345703125,0.13037109375-0.977783203125t0.30419921875-0.977783203125q0.0869140625-0.521484375,0.2607421875-1.78173828125t0.630126953125-2.455322265625t1.26025390625-2.12939453125t2.281494140625-0.934326171875l0.82568359375,0q0.6953125,0.173828125,1.412353515625,0.4345703125t0.717041015625,1.26025390625q0,0.4345703125-0.04345703125,0.82568359375t-0.13037109375,0.869140625q-0.34765625,2.56396484375-0.673583984375,4.04150390625t-0.760498046875,2.238037109375t-1.108154296875,0.977783203125t-1.716552734375,0.30419921875q-0.34765625,0-0.934326171875-0.04345703125t-1.1298828125-0.21728515625t-0.934326171875-0.543212890625t-0.39111328125-0.890869140625z M487.18538574219,428.5078125l0-1.26025390625q0-1.564453125,0.0869140625-2.955078125q0.0869140625-1.95556640625,0.0869140625-3.2158203125q0-0.6953125,0.0869140625-1.586181640625t0.4345703125-1.412353515625q0.4345703125-0.4345703125,1.021240234375-0.890869140625t1.281982421875-0.456298828125q2.21630859375,0,3.4765625,0.499755859375t1.34716796875,2.064208984375l0.173828125,1.34716796875q0.7822265625-1.86865234375,2.0859375-4.628173828125t3.020263671875-5.25830078125t3.86767578125-4.2587890625t4.541259765625-1.760009765625q2.21630859375,0,3.650390625,2.0859375t2.281494140625,5.323486328125t1.195068359375,7.2138671875t0.47802734375,7.800537109375t0.173828125,6.974853515625t0.30419921875,4.758544921875q0.173828125,1.34716796875,0.586669921875,2.846435546875t0.412841796875,2.759521484375q0,0.34765625-0.499755859375,0.673583984375t-1.064697265625,0.543212890625t-1.151611328125,0.34765625t-0.847412109375,0.13037109375q-1.69482421875,0-2.411865234375-2.542236328125t-0.890869140625-6.366455078125t-0.173828125-8.278564453125t-0.30419921875-8.278564453125t-1.238525390625-6.366455078125t-2.976806640625-2.629150390625q-1.86865234375,0-3.86767578125,2.411865234375t-3.43310546875,6.409912109375q-1.390625,3.998046875-1.912109375,9.08251953125q-0.173828125,1.60791015625-0.173828125,3.2158203125q0,3.52001953125,0.73876953125,7.0400390625q0.0869140625,0.6083984375-0.499755859375,0.91259765625t-1.455810546875,0.47802734375t-1.760009765625,0.21728515625t-1.368896484375,0.04345703125q-1.69482421875,0-2.716064453125-1.195068359375t-1.586181640625-3.063720703125t-0.760498046875-4.193603515625t-0.239013671875-4.584716796875z M526.67348632813,410.12548828125q0-0.4345703125,0.673583984375-0.73876953125t1.60791015625-0.4345703125t1.78173828125-0.21728515625t1.281982421875-0.0869140625q0.173828125-1.17333984375,0.499755859375-3.17236328125t0.803955078125-4.280517578125t1.195068359375-4.584716796875t1.73828125-4.171875t2.411865234375-3.063720703125t3.25927734375-1.195068359375l-0.0869140625,0q0.6083984375-0.0869140625,1.195068359375-0.13037109375t1.195068359375-0.04345703125q1.43408203125,0,3.107177734375,0.56494140625t3.107177734375,1.586181640625t2.411865234375,2.455322265625t0.977783203125,3.0419921875q0,1.26025390625-0.630126953125,2.716064453125t-2.194580078125,1.455810546875q-0.521484375,0-1.064697265625-0.2607421875t-1.021240234375-0.56494140625q0.173828125-0.99951171875,0.173828125-1.9990234375q0-0.521484375-0.04345703125-0.99951171875q-0.13037109375-1.52099609375-0.65185546875-2.672607421875t-1.499267578125-1.8251953125t-2.324951171875-0.499755859375q-1.78173828125,0.2607421875-2.672607421875,2.1728515625t-1.238525390625,4.541259765625t-0.4345703125,5.34521484375t-0.34765625,4.410888671875q2.04248046875,0.173828125,3.454833984375,0.173828125l3.541748046875,0q0.34765625,0,1.195068359375,0.04345703125t1.6513671875,0.173828125t1.43408203125,0.456298828125t0.630126953125,0.847412109375q0,0.4345703125-0.34765625,0.760498046875t-0.847412109375,0.456298828125t-1.04296875,0.173828125t-0.890869140625,0.04345703125q-1.52099609375,0-2.585693359375-0.13037109375t-2.04248046875-0.239013671875t-2.04248046875-0.108642578125t-2.498779296875,0.30419921875q-0.4345703125,4.82373046875-0.6953125,9.560546875t-0.2607421875,9.560546875q0,7.5615234375,0.47802734375,14.81884765625t1.73828125,14.73193359375q0.173828125,0.6953125,0.30419921875,1.586181640625t0.13037109375,1.716552734375q0,0.7822265625-0.47802734375,1.281982421875t-1.195068359375,0.717041015625t-1.4775390625,0.30419921875t-1.368896484375,0.0869140625q-2.47705078125,0-3.4765625-0.760498046875t-1.43408203125-3.063720703125q-1.08642578125-6.12744140625-1.390625-12.363525390625t-0.30419921875-12.580810546875q0-6.21435546875,0.456298828125-12.406982421875t1.151611328125-12.320068359375q-0.34765625,0-1.195068359375,0.04345703125t-1.69482421875,0t-1.4775390625-0.30419921875t-0.630126953125-0.91259765625z M557.86129394531,429.1162109375q0-2.47705078125,0.630126953125-5.106201171875t1.9990234375-4.73681640625t3.454833984375-3.43310546875t5.041015625-1.325439453125q2.21630859375,0,4.671630859375,0.760498046875t4.497802734375,2.1728515625t3.324462890625,3.454833984375t1.281982421875,4.56298828125q0,3.0419921875-1.108154296875,5.77978515625t-3.107177734375,4.888916015625t-4.671630859375,3.3896484375t-5.801513671875,1.238525390625q-2.56396484375,0-4.47607421875-0.934326171875t-3.194091796875-2.498779296875t-1.912109375-3.69384765625t-0.630126953125-4.51953125z M564.24947753906,429.029296875q0,0.7822265625,0.239013671875,2.30322265625t0.717041015625,2.976806640625t1.238525390625,2.5205078125t1.846923828125,0.977783203125q2.30322265625-0.2607421875,3.802490234375-1.499267578125t2.43359375-3.020263671875t1.3037109375-3.86767578125t0.369384765625-3.95458984375q0-2.39013671875-0.934326171875-3.998046875t-3.063720703125-2.607421875q0,0.0869140625,0.0869140625,0.0869140625t0.0869140625-0.0869140625l-1.08642578125-0.2607421875q-0.4345703125-0.173828125-1.064697265625-0.39111328125t-1.238525390625-0.9560546875q-1.69482421875,0.6083984375-2.629150390625,1.564453125t-1.412353515625,2.324951171875t-0.586669921875,3.281005859375t-0.108642578125,4.6064453125z M589.00564453125,400.6953125q0-0.6083984375,1.3037109375-1.04296875t2.955078125-0.717041015625t3.194091796875-0.412841796875t2.107666015625-0.21728515625q0-1.17333984375,0.0869140625-2.368408203125t0.47802734375-2.12939453125t1.238525390625-1.499267578125t2.368408203125-0.56494140625q1.26025390625,0,1.912109375,0.30419921875t1.390625,1.26025390625q0.173828125,0.521484375,0.173828125,0.99951171875l0,1.455810546875t-0.0869140625,1.499267578125q1.60791015625-0.173828125,3.194091796875-0.412841796875t3.194091796875-0.239013671875q1.17333984375,0,1.60791015625,0.04345703125t0.869140625,1.04296875q0.34765625,0.99951171875-0.847412109375,1.52099609375t-2.8681640625,0.7822265625t-3.324462890625,0.39111328125t-1.9990234375,0.13037109375q-0.521484375,7.474609375-1.064697265625,14.81884765625t-0.543212890625,14.90576171875q0,3.3896484375,0.21728515625,6.99658203125t1.216796875,6.82275390625q0.2607421875,0.99951171875,0.869140625,1.86865234375t0.6083984375,1.86865234375q0,0.6083984375-0.47802734375,0.9560546875t-1.151611328125,0.586669921875t-1.34716796875,0.282470703125t-1.108154296875,0.04345703125q-2.73779296875,0-4.171875-2.04248046875t-2.064208984375-4.888916015625t-0.673583984375-5.844970703125t-0.04345703125-4.8671875q0-3.82421875,0.152099609375-7.822265625t0.369384765625-7.9091796875t0.6083984375-7.6484375t0.91259765625-6.953125q-1.52099609375,0.173828125-2.976806640625,0.39111328125t-2.976806640625,0.21728515625q-0.34765625,0-0.934326171875-0.04345703125t-1.108154296875-0.21728515625t-0.890869140625-0.47802734375t-0.369384765625-0.869140625z M622.23593261719,430.072265625q0-3.0419921875,0.673583984375-7.17041015625t2.281494140625-7.822265625t4.237060546875-6.279541015625t6.627197265625-2.585693359375q3.7373046875,0,5.60595703125,2.151123046875t1.86865234375,5.801513671875q0,2.39013671875-0.890869140625,5.236572265625t-2.542236328125,5.388671875t-3.9111328125,4.237060546875t-5.041015625,1.69482421875l-1.1298828125-0.0869140625q0,1.17333984375,0.34765625,3.150634765625t1.021240234375,3.932861328125t1.73828125,3.43310546875t2.585693359375,1.4775390625q2.21630859375,0,4.2587890625-1.78173828125t3.86767578125-3.95458984375t3.3896484375-3.95458984375t2.8681640625-1.78173828125q0.6953125,0,1.43408203125,0.21728515625t0.82568359375,1.216796875q0,0.6083984375-0.325927734375,0.99951171875t-0.586669921875,0.869140625q-1.34716796875,2.30322265625-2.933349609375,4.38916015625t-3.585205078125,3.78076171875t-4.367431640625,2.672607421875t-5.236572265625,0.977783203125q-3.7373046875,0-6.21435546875-1.325439453125t-3.998046875-3.5634765625t-2.194580078125-5.17138671875t-0.673583984375-6.149169921875z M630.01474121094,426.76953125l1.216796875,1.08642578125q0.869140625,0.7822265625,1.73828125,0.34765625t1.564453125-1.586181640625t1.281982421875-2.846435546875t1.04296875-3.4765625t0.673583984375-3.4765625t0.21728515625-2.82470703125l0-1.4775390625t-0.13037109375-1.564453125t-0.456298828125-1.238525390625t-1.021240234375-0.630126953125q-0.21728515625-0.04345703125-0.39111328125-0.04345703125q-1.4775390625,0-2.5205078125,1.86865234375q-1.1298828125,2.0859375-1.8251953125,5.062744140625t-0.99951171875,6.105712890625t-0.39111328125,4.693359375z M658.55166992188,427.42138671875q0-3.12890625,0.803955078125-6.279541015625t2.498779296875-5.6494140625t4.323974609375-4.063232421875t6.192626953125-1.564453125q1.52099609375,0,3.34619140625,0.369384765625t3.367919921875,1.17333984375t2.607421875,2.0859375t1.064697265625,3.150634765625q0,1.17333984375-0.6083984375,1.564453125t-1.60791015625,0.39111328125l-0.30419921875-0.4345703125t-0.847412109375-1.108154296875t-1.151611328125-1.43408203125t-1.17333984375-1.281982421875q-1.78173828125-1.78173828125-3.34619140625-1.912109375l-0.34765625,0q-1.3037109375,0-2.43359375,0.7822265625q-1.26025390625,0.9560546875-2.238037109375,2.6943359375t-1.629638671875,3.69384765625t-1.021240234375,3.95458984375t-0.369384765625,3.302734375q0,1.78173828125,0.412841796875,4.063232421875t1.390625,4.323974609375t2.47705078125,3.43310546875t3.845947265625,1.390625q2.12939453125,0,3.86767578125-1.04296875t3.324462890625-2.324951171875t3.107177734375-2.30322265625t3.12890625-1.021240234375q0.6953125,0,1.412353515625,0.173828125t0.717041015625,0.91259765625l0,0.2607421875q-0.7822265625,2.04248046875-2.65087890625,3.60693359375t-4.193603515625,2.716064453125t-4.82373046875,1.716552734375t-4.454345703125,0.56494140625q-3.650390625,0-6.409912109375-1.195068359375t-4.584716796875-3.281005859375t-2.759521484375-5.019287109375t-0.934326171875-6.409912109375z M696.47531738281,433.02734375l0-4.0849609375q0-2.21630859375,0.108642578125-6.279541015625t0.282470703125-8.90869140625t0.47802734375-10.103759765625t0.6953125-9.929931640625t0.934326171875-8.365478515625t1.238525390625-5.4755859375q0.4345703125-0.99951171875,1.43408203125-1.26025390625t1.95556640625-0.2607421875q1.52099609375,0,2.672607421875,0.673583984375t1.151611328125,2.455322265625l-0.7822265625,0.869140625q-1.52099609375,10.03857421875-1.95556640625,20.1640625t-0.6083984375,20.2509765625q1.08642578125-1.69482421875,2.455322265625-3.324462890625t3.0419921875-2.889892578125t3.60693359375-2.020751953125t4.237060546875-0.760498046875q2.955078125,0,4.888916015625,1.78173828125t3.194091796875,4.628173828125t1.86865234375,6.366455078125t0.934326171875,7.0400390625t0.456298828125,6.670654296875t0.39111328125,5.236572265625q-0.82568359375,1.1298828125-2.43359375,1.1298828125l-0.13037109375,0q-0.6953125,0-1.52099609375-0.173828125t-1.08642578125-0.869140625l0.0869140625,0.0869140625q-0.6083984375-1.34716796875-0.82568359375-3.889404296875t-0.34765625-5.60595703125t-0.456298828125-6.279541015625t-0.977783203125-5.8232421875t-1.912109375-4.30224609375t-3.3896484375-1.78173828125l-0.2607421875,0q-2.56396484375,0-4.30224609375,1.564453125q-1.8251953125,1.6513671875-2.955078125,4.345703125t-1.73828125,5.9970703125t-0.934326171875,6.366455078125t-0.499755859375,5.5625t-0.4345703125,3.672119140625q-0.2607421875,0.99951171875-1.542724609375,1.325439453125t-2.194580078125,0.325927734375q-2.12939453125,0-3.4765625-1.216796875q-0.99951171875-2.39013671875-1.17333984375-5.95361328125t-0.173828125-6.953125z"/><path fill="#279fb8" d=""/></svg>
